<svg width="1160" height="264" viewBox="0 0 1160 264" fill="none" xmlns="http://www.w3.org/2000/svg">
<path d="M209.047 67.8C209.647 42.2 240.447 44.6 237.847 69.8C236.047 98.6 228.847 125.8 219.247 153C213.047 171.2 202.647 174.4 185.847 175.2C151.647 168.4 41.8469 211.6 32.6469 175.2C31.0469 157.4 53.8469 155.6 67.4469 155.2C84.2469 149.8 73.2469 104.4 78.0469 88C74.2469 60.8 104.047 42 110.847 74.6C108.247 97.2 103.847 119.8 100.647 142.4C98.0469 159.6 122.447 146.6 131.647 148.6C138.247 148.4 139.847 145.6 140.247 139.8C144.447 114.4 137.647 84.4 151.047 61.8C162.047 50.2 179.247 65.2 175.647 79.2C177.647 91.6 154.847 151.6 176.047 146.2C213.247 147.6 202.847 95 209.047 67.8ZM375.778 97C384.578 104.6 378.578 114.8 368.778 116C354.578 118 342.378 124.4 329.778 129.8C339.378 144 381.578 146.2 371.978 174C350.178 182.8 318.578 156.2 295.978 150.4C280.978 145.8 272.778 162.2 261.778 169C248.778 178 227.978 166 237.978 149C253.178 124 266.978 98.2 280.978 72.4C289.978 52 312.978 68.6 304.378 85.2C299.978 94.6 293.578 102.4 290.578 112.6C320.378 118.4 348.378 78.4 375.778 97ZM435.286 59.6C474.686 29.6 562.486 52.8 539.886 112C519.486 154 449.886 236.2 412.286 167.4C399.686 143.2 396.086 56.8 435.286 59.6ZM473.886 159.8C498.486 140 544.886 89.6 495.686 71.2C476.686 62 457.886 73.2 446.086 87.6C428.686 95.6 434.086 112.8 429.286 130.2C434.486 156.6 442.086 183.6 473.886 159.8ZM648.508 79.4C661.108 151.8 620.308 234.8 619.108 101.2C597.308 111.8 547.108 217.6 530.308 162.6C554.308 131.4 586.908 105 608.708 70.8C618.308 44.4 648.708 55.2 648.508 79.4ZM706.77 59.6C746.17 29.6 833.97 52.8 811.37 112C790.97 154 721.37 236.2 683.77 167.4C671.17 143.2 667.57 56.8 706.77 59.6ZM745.37 159.8C769.97 140 816.37 89.6 767.17 71.2C748.17 62 729.37 73.2 717.57 87.6C700.17 95.6 705.57 112.8 700.77 130.2C705.97 156.6 713.57 183.6 745.37 159.8ZM1023.82 59C1026.63 75.2 1003.03 75.6 992.225 79.8C970.625 88.6 936.025 80.8 922.625 101.6C914.225 128.4 900.025 153.8 895.625 181.6C893.825 189.2 889.825 191.6 882.225 190.6C854.025 182.2 893.025 118.6 893.425 97C879.625 98.2 867.625 99.4 855.425 100.2C828.025 101.6 827.825 66.4 854.825 66.4C903.425 64 951.025 58.2 999.025 49.8C1008.43 48.4 1022.03 46.8 1023.82 59ZM1089.55 61.8C1103.15 99.6 1099.95 141.8 1098.95 181.2C1081.75 213.8 1066.35 167 1068.55 148.8C1043.75 161.2 1015.15 160.8 1011.15 193C1009.35 199.6 1005.35 200.4 999.753 200.2C964.153 194 1023.15 116.8 1027.95 95.4C1040.55 67 1062.35 7.59999 1089.55 61.8ZM1047.75 124C1075.15 125.4 1064.55 108.8 1063.35 90.4C1058.15 91.8 1039.75 120.6 1047.75 124Z" fill="#A200FF" fill-opacity="0.29"/>
<g filter="url(#filter0_d_75_2)">
<path d="M198.047 86.8C198.647 61.2 229.447 63.6 226.847 88.8C225.047 117.6 217.847 144.8 208.247 172C202.047 190.2 191.647 193.4 174.847 194.2C140.647 187.4 30.8469 230.6 21.6469 194.2C20.0469 176.4 42.8469 174.6 56.4469 174.2C73.2469 168.8 62.2469 123.4 67.0469 107C63.2469 79.8 93.0469 61 99.8469 93.6C97.2469 116.2 92.8469 138.8 89.6469 161.4C87.0469 178.6 111.447 165.6 120.647 167.6C127.247 167.4 128.847 164.6 129.247 158.8C133.447 133.4 126.647 103.4 140.047 80.8C151.047 69.2 168.247 84.2 164.647 98.2C166.647 110.6 143.847 170.6 165.047 165.2C202.247 166.6 191.847 114 198.047 86.8ZM364.778 116C373.578 123.6 367.578 133.8 357.778 135C343.578 137 331.378 143.4 318.778 148.8C328.378 163 370.578 165.2 360.978 193C339.178 201.8 307.578 175.2 284.978 169.4C269.978 164.8 261.778 181.2 250.778 188C237.778 197 216.978 185 226.978 168C242.178 143 255.978 117.2 269.978 91.4C278.978 71 301.978 87.6 293.378 104.2C288.978 113.6 282.578 121.4 279.578 131.6C309.378 137.4 337.378 97.4 364.778 116ZM424.286 78.6C463.686 48.6 551.486 71.8 528.886 131C508.486 173 438.886 255.2 401.286 186.4C388.686 162.2 385.086 75.8 424.286 78.6ZM462.886 178.8C487.486 159 533.886 108.6 484.686 90.2C465.686 81 446.886 92.2 435.086 106.6C417.686 114.6 423.086 131.8 418.286 149.2C423.486 175.6 431.086 202.6 462.886 178.8ZM637.508 98.4C650.108 170.8 609.308 253.8 608.108 120.2C586.308 130.8 536.108 236.6 519.308 181.6C543.308 150.4 575.908 124 597.708 89.8C607.308 63.4 637.708 74.2 637.508 98.4ZM695.77 78.6C735.17 48.6 822.97 71.8 800.37 131C779.97 173 710.37 255.2 672.77 186.4C660.17 162.2 656.57 75.8 695.77 78.6ZM734.37 178.8C758.97 159 805.37 108.6 756.17 90.2C737.17 81 718.37 92.2 706.57 106.6C689.17 114.6 694.57 131.8 689.77 149.2C694.97 175.6 702.57 202.6 734.37 178.8ZM1012.82 78C1015.63 94.2 992.025 94.6 981.225 98.8C959.625 107.6 925.025 99.8 911.625 120.6C903.225 147.4 889.025 172.8 884.625 200.6C882.825 208.2 878.825 210.6 871.225 209.6C843.025 201.2 882.025 137.6 882.425 116C868.625 117.2 856.625 118.4 844.425 119.2C817.025 120.6 816.825 85.4 843.825 85.4C892.425 83 940.025 77.2 988.025 68.8C997.425 67.4 1011.03 65.8 1012.82 78ZM1078.55 80.8C1092.15 118.6 1088.95 160.8 1087.95 200.2C1070.75 232.8 1055.35 186 1057.55 167.8C1032.75 180.2 1004.15 179.8 1000.15 212C998.353 218.6 994.353 219.4 988.753 219.2C953.153 213 1012.15 135.8 1016.95 114.4C1029.55 86 1051.35 26.6 1078.55 80.8ZM1036.75 143C1064.15 144.4 1053.55 127.8 1052.35 109.4C1047.15 110.8 1028.75 139.6 1036.75 143Z" fill="url(#paint0_linear_75_2)"/>
</g>
<defs>
<filter id="filter0_d_75_2" x="16.0469" y="26.6" width="1080.11" height="236.6" filterUnits="userSpaceOnUse" color-interpolation-filters="sRGB">
<feFlood flood-opacity="0" result="BackgroundImageFix"/>
<feColorMatrix in="SourceAlpha" type="matrix" values="0 0 0 0 0 0 0 0 0 0 0 0 0 0 0 0 0 0 127 0" result="hardAlpha"/>
<feOffset dy="4"/>
<feGaussianBlur stdDeviation="2"/>
<feComposite in2="hardAlpha" operator="out"/>
<feColorMatrix type="matrix" values="0 0 0 0 0 0 0 0 0 0 0 0 0 0 0 0 0 0 0.25 0"/>
<feBlend mode="normal" in2="BackgroundImageFix" result="effect1_dropShadow_75_2"/>
<feBlend mode="normal" in="SourceGraphic" in2="effect1_dropShadow_75_2" result="shape"/>
</filter>
<linearGradient id="paint0_linear_75_2" x1="0" y1="124.5" x2="1149" y2="124.5" gradientUnits="userSpaceOnUse">
<stop stop-color="#A200FF"/>
<stop offset="0.480769" stop-color="#FF009D"/>
<stop offset="1" stop-color="#FFCC00"/>
</linearGradient>
</defs>
</svg>
